<?xml version="1.0" encoding="utf-8"?>
<!-- Generator: Adobe Illustrator 16.0.0, SVG Export Plug-In . SVG Version: 6.00 Build 0)  -->
<!DOCTYPE svg PUBLIC "-//W3C//DTD SVG 1.1//EN" "http://www.w3.org/Graphics/SVG/1.1/DTD/svg11.dtd">
<svg version="1.1" id="Layer_1" xmlns="http://www.w3.org/2000/svg" xmlns:xlink="http://www.w3.org/1999/xlink" x="0px" y="0px"
	 width="1280px" height="613.5px" viewBox="0 95.701 1280 613.5" enable-background="new 0 95.701 1280 613.5" xml:space="preserve"
	>
<g>
	<g>
		<path d="M186.815,109.952c-13.179,31.819-25.553,63.89-33.933,97.414c-4.677,18.71-7.867,37.691-11.842,56.524
			c-0.999,4.738,1.512,5.96,5.592,7.384c22.394,7.83,45.045,15.189,64.77,29.017c1.738,1.22,3.649,2.256,5.2,3.68
			c2.662,2.447,5.935,4.865,4.829,9.166c-1.262,4.899-5.684,3.76-9.082,3.995c-23.936,1.653-46.84-4.581-69.706-10.096
			c-5.945-1.434-5.97,1.232-6.929,4.604c-0.407,1.431-0.29,3.034-0.292,4.56c-0.013,28.552-1.376,57.186,0.314,85.64
			c2.519,42.46,9.054,84.482,18.951,125.955c14.612,61.239,34.657,120.49,62.951,176.84c0.334,0.664-0.03,1.68-0.156,4.565
			c-11.676-15.979-22.603-30.384-32.953-45.194c-40.719-58.253-72.866-120.657-90.323-189.953
			c-6.567-26.072-10.459-52.54-12.393-79.465c-2.299-32.035,0.435-63.505,5.918-94.909c1.027-5.885-0.433-8.501-6.563-10.609
			c-24.657-8.479-49.645-16.357-71.681-30.992c-4.168-2.764-9.287-5.713-7.623-11.082c1.611-5.196,7.999-5.16,12.481-5.083
			c15.404,0.262,30.584,3.088,45.703,5.814c10.926,1.971,21.851,4.403,32.403,7.787c5.413,1.735,6.308-0.579,7.479-4.356
			c11.716-37.806,29.205-72.81,51.471-105.459c9.543-13.994,19.21-27.916,31.456-39.785
			C185.95,105.516,187.507,106.628,186.815,109.952z"/>
		<path fill="#CF0018" d="M379.381,369.873c23.472,14.825,28.393,37.93,25.091,62.673c-3.513,26.328-21.104,42.477-46.067,49.158
			c-31.98,8.556-63.314,4.74-93.483-8.915c-5.778-2.617-8.418-5.489-5.015-12.226c3.641-7.205,6.688-14.866,8.769-22.658
			c1.723-6.454,4.51-6.001,8.847-3.257c12.039,7.615,24.62,13.942,38.611,17.259c16.156,3.831,36.108-1.714,42.61-13.111
			c8.528-14.951,5.988-33.663-11.984-46.185c-14.95-10.414-32.42-16.191-48.274-24.978c-16.004-8.87-30.045-20.312-36.23-37.97
			c-12.486-35.662,5.881-68.211,45.038-76.792c28.424-6.23,55.685-0.532,82.116,10.624c3.926,1.657,5.223,3.266,3.784,7.411
			c-2.848,8.21-5.846,16.434-7.769,24.88c-1.32,5.793-3.405,5.318-7.104,2.57c-16.65-12.365-35.393-16.519-55.785-14.174
			c-2.537-0.072,3.8-3.517-1.272-3.096c-2.856,0.238-5.61-2.155-8.881-1.908c3.229,2.204,7.683,1.651,10.295,4.897
			c-0.149,0.268-0.242,0.708-0.456,0.774c-11.184,3.611-20.939,8.997-21.707,22.304c-0.823,14.228,6.796,24.341,18.589,30.882
			c17.651,9.784,37.02,16.165,54.345,26.67c1.492,0.903,2.703,2.266,4.044,3.42C378.924,367.836,376.028,372.241,379.381,369.873z"
			/>
		<path fill="#CF0018" d="M829.129,263.471c14.685,8.496,20.088,23.174,24.891,38.058c1.547,4.793,1.601,10.067,2.337,15.119
			c-2.108,6.071-0.745,12.613-2.517,18.743c-1.419,17.693-0.452,35.395-0.579,53.086c-0.191,26.556,0.008,53.118-0.077,79.673
			c-0.039,12.743-0.268,13.037-12.598,12.827c-6.957-0.115-13.984,1.066-20.874-0.836c-0.13-44.26,0.032-88.523-0.574-132.773
			c-0.17-12.269-1.154-24.691-5.165-36.591c-5.66-16.779-18.939-26.119-36.516-27.029c-21.446-1.112-38.878,6.649-53.709,21.547
			c-3.828,3.844-5.341,8.031-5.326,13.669c0.146,53.727-0.057,107.458-0.162,161.186c-8.43,1.949-16.976,0.41-25.459,0.88
			c-3.953,0.219-5.338-2.329-5.838-5.646c-0.455-3.025-0.328-6.092-0.328-9.144c-0.008-65.321-0.008-130.65-0.003-195.974
			c0-1.22-0.009-2.441,0.023-3.663c0.273-10.667,0.813-11.208,11.689-11.071c2.397,0.032,4.906-0.582,7.146,0.866
			c3.166,6.783,6.289,13.59,9.513,20.349c2.152,4.516,3.851,6.378,7.776,0.674c23.042-33.499,78.597-32.279,102.142-17.127
			C825.048,263.03,827.274,263.005,829.129,263.471z"/>
		<path fill="#CF0018" d="M1217.429,350.146c4.998,2.25,10.551,3.319,14.866,7.008c-1.145,1.09-2.765,0.874-4.081,1.49
			c1.366-0.451,2.941-0.351,4.028-1.541c27.381,11.504,45.066,30.515,47.518,61.332c1.922,24.189-13.642,50.834-36.892,59.456
			c-35.651,13.221-70.895,11.017-104.89-6.598c0.328-1.756,4.613-2.954,0.495-5.403c-1.955-1.165-2.757-3.66-3.46-5.906
			c3.139-9.329,6.273-18.658,9.581-28.502c14.783,7.714,28.434,16.656,44.768,19.986c12.419,2.528,24.068,1.461,35.026-4.447
			c15.447-8.328,17.792-31.181,4.994-45.788c-7.312-8.355-16.577-13.944-26.48-18.763c-18.811-9.152-38.824-16.176-53.787-32.016
			c-18.923-20.027-22.29-51.921-6.415-74.244c11.45-16.104,28.853-22.943,47.597-25.075c25.143-2.857,49.247,2.38,72.544,12.255
			c4.971,2.106,5.325,4.197,3.999,8.29c-3.223,9.939-6.398,19.896-9.672,30.088c-15.887-11.452-32.682-19.554-53.006-18.011
			c-11.534,0.874-25.564,8.414-28.492,16.684c-3.782,10.681,1.43,24.58,11.29,33.326c7.446,6.603,17.151,8.612,25.078,14.029
			C1213.457,349.448,1214.588,351.765,1217.429,350.146z"/>
		<path fill="#494949" d="M768.119,506.103c-167.191,0-334.381,0.021-501.569-0.155c-3.309-0.004-9.356,3.03-9.647-2.423
			c-0.163-3.049,6.237-1.557,9.604-1.557c334.685-0.091,669.369-0.098,1004.054,0.063c2.995,0.004,8.713-2.746,8.791,2.415
			c0.049,3.23-5.701,1.563-8.75,1.565C1103.107,506.114,935.613,506.104,768.119,506.103z"/>
		<path fill="#E85D0E" d="M212.411,190.699c27.202,7.899,36.996,29.941,24.016,53.879c-2.566,4.732-6.155,8.172-11.149,10.151
			c-1.511-0.088-2.968-0.082-3.381,1.839c-12.602,7.391-29.757,4.735-40.343-6.244c-11.834-12.272-14.092-30.257-4.994-43.593
			c1.754-2.571,2.864-6.142,6.428-7.281c3.399,0.528-3.169,7.234,3.534,5.707c0.624-0.143,0.903,1.7,1.091,0.623
			c1.247-7.205,7.298-6.026,12.003-7.235c0.782-0.288,1.577-0.517,2.379-0.739C205.99,196.191,211.219,196.413,212.411,190.699z"/>
		<path fill="#D00019" d="M705.49,256.394c-16.266,0.002-16.266,0.002-16.266,16.622c0,64.704-0.02,129.405,0.016,194.108
			c0.007,14.611-1.344,12.917,13.456,13.022c5.187,0.038,10.377,0.004,15.563,0.004c-12.271,4.02-24.881,0.889-37.307,1.723
			c-1.834,0.122-2.637-1.157-2.673-2.899c-0.037-1.831-0.05-3.662-0.05-5.491c-0.001-70.204,0.025-140.403-0.055-210.608
			c-0.005-5.265-0.512-10.304,7.367-7.997c1.58,2.538,0.871,5.361,0.871,8.052c0.038,72.057,0.038,144.115,0.059,216.175
			c0.04-71.444,0.014-142.891,0.074-214.339c0.004-3.291-0.857-6.722,0.857-9.887C693.44,255.251,699.743,252.537,705.49,256.394z"
			/>
		<path fill="#010101" d="M916.661,538.146c0,13.918,0.104,27.837-0.104,41.752c-0.033,2.236,2.043,6.115-2.407,6.51
			c-4.851,0.425-3.022-3.686-3.037-5.902c-0.143-19.734-0.084-39.474-0.084-61.48c15.765,17.983,30.152,34.395,45.969,52.437
			c0-16.69-0.112-31.197,0.104-45.699c0.039-2.665-2.382-7.244,3.77-7.132c5.49,0.102,3.355,4.184,3.376,6.618
			c0.166,20.128,0.094,40.259,0.094,63.093c-16.023-18.099-30.646-34.613-45.266-51.128
			C918.269,537.525,917.465,537.837,916.661,538.146z"/>
		<path fill="#010101" d="M1211.746,632.695c6.773-5.655,14.243-13.62,22.72-7.193c8.486,6.429,13.268,7.095,22.3,0.273
			c9.091-6.866,21.949,1.144,22.849,12.896c0.814,10.628,0.196,21.365,0.179,32.058c-0.002,1.776,0.193,3.709-2.542,3.83
			c-3.473,0.151-2.937-2.321-2.943-4.362c-0.037-8.552,0.026-17.103-0.02-25.652c-0.052-9.831-3.717-14.849-11.351-15.686
			c-6.436-0.706-14.093,5.944-16.215,13.448c-2.457,8.681-1.28,17.497-1.732,26.258c-0.113,2.263,1.748,6.214-3.096,5.893
			c-3.962-0.265-2.326-3.654-2.371-5.69c-0.189-8.241-0.46-16.512,0.031-24.727c0.504-8.451-3.473-13.373-11.124-15.029
			c-6.673-1.443-14.927,6.311-16.551,13.867c-1.936,9.012-1.556,18.087-1.696,27.172c-0.028,1.933,0.785,4.546-2.746,4.519
			c-3.434-0.024-2.807-2.545-2.813-4.538c-0.044-12.829-0.138-25.655,0.082-38.483c0.036-2.198-1.971-6.095,2.484-6.385
			C1212.608,624.807,1208.847,629.969,1211.746,632.695z"/>
		<path fill="#D00015" d="M852.457,333.427c1.117-5.637-2.949-12.478,3.9-16.78l-0.026-0.009c1.924,6.708-0.578,13.718,1.396,20.421
			c-0.008,47.692-0.017,95.384-0.022,143.075c-6.832,2.741-6.12-2.129-6.124-6.136c-0.03-19.804-0.013-39.606-0.015-59.411
			c0-24.07-0.03-48.136,0.037-72.206C851.615,339.397,850.838,336.281,852.457,333.427z"/>
		<path fill="#020202" d="M293.421,588.388c-9.23,0.2-14.461-3.9-18.601-9.937c-1.108-1.613-3.568-2.811-0.324-4.938
			c2.836-1.864,3.895-0.725,5.46,1.649c4.42,6.717,10.126,10.219,18.233,5.915c7.423-3.94,9.008-11.006,3.808-17.635
			c-3.77-4.806-8.42-8.705-13.23-12.458c-3.095-2.412-6.305-4.909-8.674-7.979c-3.878-5.024-4.872-10.605-1.902-16.791
			c3.056-6.365,9.18-8.734,14.728-8.916c6.146-0.198,11.967,3.581,15.958,8.996c1.188,1.613,0.4,2.719-0.739,3.907
			c-1.63,1.698-3.037,1.553-4.572-0.125c-5.463-5.977-11.529-9.706-18.431-2.412c-4.618,4.875-1.91,11.044,7.427,18.811
			c4.435,3.688,8.881,7.373,13.132,11.271c5.963,5.463,7.54,12.074,4.29,19.599C306.577,585.231,301.175,588.479,293.421,588.388z"
			/>
		<path fill="#010101" d="M480.144,544.364c8.416-4.329,14.019-10.386,22.846-8.471c11.943,2.591,14.441,11.798,15.463,21.548
			c0.853,8.152,0.211,16.466,0.19,24.708c-0.005,2.082,0.42,4.504-2.986,4.373c-3.498-0.136-2.429-2.769-2.614-4.663
			c-0.896-9.302,0.716-18.582-1.301-28.049c-1.632-7.67-4.424-12.534-12.195-13.006c-8.636-0.522-14.253,4.459-17.399,12.063
			c-3.494,8.445-1.404,17.462-2.104,26.2c-0.202,2.51,2.425,7.054-2.484,7.247c-5.155,0.205-2.778-4.519-2.807-6.942
			c-0.213-18.619-0.194-37.245-0.017-55.864c0.023-2.242-2.005-6.325,2.391-6.487c5.396-0.2,2.743,4.437,2.889,6.841
			C480.396,530.174,480.144,536.523,480.144,544.364z"/>
		<path fill="#020202" d="M994.79,676.43c-8.238,0.242-14.215-3.001-18.194-10.01c-1.109-1.955-2.237-3.38,0.209-5.343
			c3.052-2.451,3.316,0.43,4.548,1.854c1.598,1.837,3.197,3.729,5.075,5.249c5.644,4.575,11.726,3.777,16.47-0.75
			c4.823-4.602,5.403-10.73,1.046-16.344c-5.28-6.798-12.915-11.029-19.075-16.882c-7.776-7.385-8.435-17.214-1.707-23.939
			c6.526-6.524,17.97-6.307,24.622,0.84c1.471,1.574,4.949,3.528,1.701,6.749c-3.04,3.017-4.036-0.389-5.537-1.763
			c-5.452-5-11.459-6.06-17.038-1.008c-4.549,4.111-2.492,12.041,4.18,17.064c5.814,4.371,12.183,8.115,16.884,13.728
			c4.793,5.722,8.226,12.354,3.917,19.717C1008.146,671.995,1002.963,677.063,994.79,676.43z"/>
		<path fill="#020202" d="M826.787,561.048c0.012-6.414-0.07-12.833,0.064-19.244c0.04-1.807-1.258-4.538,2.372-4.783
			c2.456-0.166,2.935,1.015,3.132,3.21c0.522,5.75,3.394,2.417,5.365,1.096c5.499-3.686,10.694-6.87,18.113-5.114
			c12.186,2.885,13.693,12.523,14.769,22.075c0.883,7.84,0.218,15.861,0.178,23.806c-0.009,2.039,0.521,4.523-2.929,4.436
			c-3.515-0.089-2.578-2.712-2.654-4.619c-0.375-9.65-0.26-19.252-1.39-28.952c-1.278-10.992-12.913-15.985-22.33-9.287
			c-6.063,4.313-8.946,10.593-9.142,17.977c-0.168,6.41,0.098,12.835-0.118,19.243c-0.065,2.02,1.59,5.369-2.497,5.574
			c-4.209,0.217-2.837-3.169-2.885-5.252C826.678,574.49,826.776,567.771,826.787,561.048z"/>
		<path fill="#020202" d="M904.729,631.77c7.085-4.872,13.505-10.734,23.506-6.987c7.582,2.841,11.458,8.206,12.043,15.344
			c0.818,10.014,0.224,20.145,0.22,30.229c0,2.145,0.241,4.509-3.113,4.164c-3.409-0.346-2.323-3.037-2.349-4.887
			c-0.116-7.94-0.015-15.884-0.056-23.827c-0.049-10.39-5.02-16.747-13.267-17.077c-8.861-0.348-17.507,7.635-17.846,16.944
			c-0.289,7.934-0.005,15.883-0.085,23.826c-0.021,2.217,0.915,5.313-3.18,5.017c-3.456-0.25-2.35-3.006-2.365-4.839
			c-0.1-12.523-0.205-25.051,0.074-37.571c0.053-2.364-2.475-6.739,2.85-6.964C906.234,624.932,902.086,630.258,904.729,631.77z"/>
		<path fill="#010101" d="M1161.314,543.682c7.107-4.683,13.642-10.525,23.504-6.938c7.866,2.862,11.838,8.336,12.299,16.044
			c0.582,9.738,0.18,19.535,0.134,29.31c-0.01,1.988,0.657,4.561-2.868,4.428c-3.518-0.13-2.562-2.78-2.584-4.663
			c-0.093-8.243,0.015-16.489-0.055-24.734c-0.09-10.178-5.527-16.528-13.946-16.445c-8.685,0.086-16.857,7.775-17.159,16.649
			c-0.281,8.234-0.029,16.488-0.076,24.735c-0.016,2.004,0.602,4.533-2.876,4.461c-3.487-0.076-2.681-2.665-2.69-4.597
			c-0.058-12.827-0.135-25.657,0.069-38.479c0.035-2.215-1.931-6.041,2.608-6.347
			C1162.997,536.746,1159.075,541.946,1161.314,543.682z"/>
		<path fill="#030303" d="M1045.212,664.525c5.687-13.391,10.275-24.399,15.059-35.319c1.011-2.307,2.3-5.8,5.69-3.924
			c2.836,1.573,0.526,3.883-0.421,6.06c-8.228,18.939-16.208,37.99-24.451,56.918c-1.072,2.464-2.331,6.58-6.275,4.449
			c-3.533-1.911-0.349-4.356,0.795-6.28c5.58-9.398,6.722-18.173,0.567-28.438c-5.959-9.943-9.584-21.283-14.313-32.193
			c4.368-2.217,5.969,0.401,7.577,4.07C1034.195,640.708,1039.224,651.425,1045.212,664.525z"/>
		<path fill="#030303" d="M483.511,676.44c-12.858-0.125-23.047-7.826-26.563-20.103c-2.823-9.866,2.849-23.055,12.415-28.875
			c9.795-5.962,25.821-4.636,33.559,3.033c1.332,1.321,5.111,2.432,2.119,5.606c-2.958,3.136-3.971-0.595-5.542-1.752
			c-12.952-9.559-29.895-5.954-35.692,7.666c-3.478,8.179-0.835,19.074,5.91,24.322c7.232,5.63,20.075,6.281,27.221,1.293
			c1.232-0.862,2.176-2.13,3.323-3.132c1.527-1.331,3.479-1.875,4.922-0.393c1.802,1.861-0.187,3.188-1.368,4.443
			C498.297,674.403,491.292,676.439,483.511,676.44z"/>
		<path fill="#020202" d="M428.8,556.857c-0.525,6.036,1.194,13.054-1.951,19.74c-4.018,8.541-13.206,13.288-23.413,11.735
			c-9.373-1.423-15.015-7.925-17.021-17.296c-1.998-9.335-1.583-18.637-1.556-27.98c0.005-2.21-1.872-6.181,3-5.957
			c4.025,0.188,2.391,3.575,2.455,5.611c0.276,8.764,0.042,17.484,1.621,26.249c1.606,8.929,6.613,14.033,15.79,13.884
			c8.858-0.145,15.046-5.65,15.454-14.551c0.391-8.532-0.016-17.095,0.167-25.64c0.041-2.021-1.577-5.349,2.497-5.581
			c4.219-0.24,2.819,3.133,2.903,5.223C428.925,546.866,428.8,551.453,428.8,556.857z"/>
		<path fill="#020202" d="M423.626,670.891c5.693,0.336,10.723-1.376,14.878-5.238c1.949-1.81,4.175-3.57,6.207-1.322
			c1.98,2.191-0.974,3.701-2.291,5.068c-7.411,7.711-21.235,9.259-32.466,3.779c-9.829-4.802-15.133-14.446-14.186-25.804
			c0.859-10.299,9.55-19.387,20.219-22.476c10.611-3.071,19.402-0.223,27.425,6.53c1.586,1.335,3.321,2.713,0.679,5.075
			c-2.392,2.137-2.981-0.201-4.226-1.098c-10.635-7.685-19.686-8.72-28.138-3.207c-8.274,5.396-12.322,14.364-10.131,22.449
			C404.318,664.685,412.791,670.933,423.626,670.891z"/>
		<path fill="#020202" d="M700.091,563.119c-0.513-12.028,4.865-19.644,15.248-24.728c11.1-5.434,20.935-2.617,30.389,3.402
			c1.563,0.994,5.4,3.035,2.684,6.308c-2.93,3.526-4.463-0.334-6.285-1.731c-8.165-6.27-16.538-7.596-25.988-2.485
			c-8.774,4.74-11.274,12.018-10.407,21.22c0.801,8.508,5.938,13.824,13.435,16.558c8.145,2.971,16.024,1.667,22.982-3.876
			c2.088-1.666,4.724-4.217,6.804-0.896c1.68,2.684-1.818,4.31-3.527,5.425c-9.966,6.493-20.457,8.681-31.619,2.782
			C704.779,580.322,699.393,573.399,700.091,563.119z"/>
		<path fill="#010101" d="M641.002,516.755c1.923,0.866,5.94-1.725,5.941,2.961c0.004,4.114-3.476,2.581-5.477,2.528
			c-7.38-0.19-4.843,5.226-5.471,9.006c-0.855,5.162,1.678,6.221,6.14,5.841c1.789-0.151,4.597-1.173,4.847,2.296
			c0.305,4.191-2.97,3.324-5.038,3.018c-6.017-0.892-6.089,2.505-5.985,6.963c0.236,10.367,0.184,20.748-0.004,31.116
			c-0.041,2.229,1.827,6.214-3.015,5.945c-3.996-0.223-2.303-3.658-2.336-5.662c-0.172-10.673-0.091-21.357-0.061-32.031
			c0.009-3.308,0.844-6.663-4.697-6.417c-3.91,0.173-3.163-4.549-1.541-4.614c9.526-0.362,5.97-7.242,6.073-11.717
			C630.545,518.705,634.24,516.342,641.002,516.755z"/>
		<path fill="#020202" d="M1088.046,676.401c-3.539-0.015-5.547,0.024-7.522-1.282c-2.805-1.854-8.655-2.386-7.008-6.422
			c2.028-4.979,5.502,0.412,8.104,1.318c6.165,2.145,10.854,0.747,13.838-4.833c2.835-5.306-0.633-8.536-4.808-11.061
			c-3.091-1.871-6.403-3.374-9.442-5.313c-7.389-4.715-9.12-13.957-3.938-20.276c4.899-5.975,15.02-6.409,20.881-0.9
			c1.34,1.26,2.783,2.386,1.294,4.54c-2.025,2.935-3.143,0.66-4.8-0.496c-4.949-3.449-10.581-5.047-13.959,1.262
			c-2.943,5.509,0.555,9.669,5.724,12.435c3.418,1.83,6.973,3.659,9.852,6.187c4.155,3.646,7.31,7.938,4.688,14.173
			C1098.221,672.2,1093.55,675.733,1088.046,676.401z"/>
		<path fill="#010101" d="M791.93,652.637c0-4.874-0.114-9.749,0.034-14.619c0.135-4.434,0.601-8.822-6.207-7.536
			c-1.591,0.301-2.895-0.419-2.971-2.425c-0.067-1.79,0.559-3.246,2.442-2.916c8.215,1.447,6.673-4.282,6.71-8.886
			c0.016-1.827-0.067-3.659,0.021-5.481c0.085-1.669-0.543-3.782,2.234-4.047c3.214-0.313,3.287,1.789,3.256,4.052
			c-0.027,2.131,0.144,4.276-0.036,6.393c-0.424,5.016-0.237,9.241,6.809,7.938c2.033-0.379,4.504-0.438,4.173,2.989
			c-0.328,3.416-3.068,2.608-4.833,2.354c-5.639-0.823-6.345,1.974-6.216,6.725c0.304,10.955,0.123,21.93,0.068,32.892
			c-0.01,1.969,0.675,4.526-2.805,4.494c-3.553-0.03-2.609-2.68-2.643-4.568C791.865,664.209,791.933,658.425,791.93,652.637z"/>
		<path fill="#010101" d="M696.561,652.52c0.003-4.569,0.052-9.14-0.015-13.711c-0.056-4.242,1.645-9.839-6.249-8.343
			c-1.645,0.308-2.806-0.561-2.9-2.52c-0.095-1.859,0.643-3.164,2.492-2.828c8.301,1.515,6.591-4.332,6.67-8.876
			c0.036-2.132-0.02-4.266,0.023-6.396c0.03-1.569,0.281-2.948,2.342-3.124c2.463-0.204,3.172,1.089,3.148,3.234
			c-0.027,2.437,0.177,4.892-0.045,7.304c-0.47,5.156,0.063,9.108,6.923,7.835c2.126-0.394,4.407-0.254,4.087,3.089
			c-0.265,2.732-2.345,2.594-3.994,2.291c-6.636-1.219-7.237,2.376-7.072,7.696c0.324,10.347,0.176,20.713,0.043,31.067
			c-0.024,2.057,1.383,5.449-2.842,5.259c-4.087-0.18-2.459-3.504-2.539-5.531C696.415,663.493,696.559,658.004,696.561,652.52z"/>
		<path fill="#010101" d="M448.966,564.442c0.007-4.572,0.024-9.14,0.002-13.714c-0.022-4.332,1.521-9.828-6.332-8.298
			c-1.656,0.325-2.793-0.519-2.851-2.502c-0.054-1.85,0.644-3.171,2.507-2.836c8.276,1.49,6.597-4.343,6.677-8.891
			c0.037-2.132,0.022-4.267,0.001-6.4c-0.019-2.239,0.957-3.308,3.295-3.109c2.141,0.184,2.16,1.696,2.183,3.215
			c0.038,2.434,0.19,4.889-0.021,7.309c-0.446,5.116-0.004,9.146,6.906,7.849c2.153-0.402,4.41-0.159,4.087,3.13
			c-0.267,2.739-2.41,2.556-4.03,2.245c-6.808-1.298-7.164,2.539-7.01,7.759c0.293,10.049,0.215,20.114,0,30.165
			c-0.048,2.185,1.887,6.262-2.82,6.029c-4.508-0.227-2.355-4.162-2.497-6.417C448.735,574.815,448.959,569.624,448.966,564.442z"/>
		<path fill="#020202" d="M1048.701,564.037c0.004-4.264,0.015-8.524,0-12.793c-0.014-4.612,1.457-10.288-6.708-8.84
			c-1.895,0.337-2.493-1.114-2.457-2.897c0.047-2.017,1.298-2.758,2.914-2.446c6.688,1.298,6.599-2.899,6.27-7.44
			c-0.109-1.516-0.251-3.09,0.031-4.558c0.438-2.291-1.694-6.268,2.728-6.254c4.42,0.016,2.36,3.981,2.685,6.269
			c0.769,5.422-3.211,13.887,8.242,11.997c1.702-0.28,2.742,0.691,2.801,2.618c0.085,2.679-1.75,3.156-3.573,2.746
			c-8.677-1.939-7.445,3.985-7.428,9.073c0.027,10.05,0.062,20.102-0.035,30.151c-0.016,1.854,1.021,4.592-2.4,4.813
			c-4.189,0.274-2.979-2.953-3.024-5.077C1048.612,575.614,1048.697,569.826,1048.701,564.037z"/>
		<path fill="#010101" d="M1118.396,651.873c0.004-4.567-0.007-9.133,0.008-13.701c0.013-4.125,1.096-8.994-5.981-7.684
			c-1.516,0.281-3.016-0.188-3.145-2.257c-0.081-1.27,0.126-3.05,1.331-2.921c11.404,1.212,6.9-7.261,7.824-12.49
			c0.4-2.266-1.753-6.379,3.017-5.967c4.304,0.373,2.158,4.247,2.369,6.526c0.53,5.726-2.612,13.75,8.547,11.757
			c1.829-0.325,2.583,1.022,2.521,2.866c-0.095,2.728-2.121,2.798-3.822,2.476c-7.475-1.429-7.393,3.02-7.241,8.395
			c0.29,10.345,0.125,20.703,0.054,31.055c-0.015,1.906,0.835,4.497-2.635,4.632c-3.563,0.138-2.793-2.467-2.82-4.418
			C1118.348,664.053,1118.396,657.964,1118.396,651.873z"/>
		<path fill="#C70219" d="M687.4,254.875c0,74.461,0,148.922,0,223.387c-0.62,0-1.242,0-1.861,0c0-74.465,0-148.928,0-223.389
			C686.16,254.873,686.78,254.873,687.4,254.875z"/>
		<path fill="#020202" d="M516.82,649.405c0.004-6.688,0.105-13.376-0.037-20.061c-0.076-3.539,3.306-6.187,4.301-3.717
			c3.959,9.828,6.294,0.963,9.275-0.149c2.225-0.829,4.485-1.908,6.788-2.071c1.686-0.117,3.647,1.29,3.374,3.359
			c-0.166,1.271-1.377,3.068-2.52,3.457c-13.021,4.44-14.888,6.902-15.527,22.278c-0.228,5.463,0.112,10.947-0.101,16.408
			c-0.081,2.031,1.539,5.389-2.476,5.564c-4.852,0.217-2.913-3.708-2.998-5.927C516.654,662.175,516.815,655.788,516.82,649.405z"/>
		<path fill="#010101" d="M1274.292,551.693c0.003-9.737-0.086-19.475,0.074-29.21c0.035-2.023-1.543-5.287,2.483-5.588
			c4.194-0.316,2.996,2.989,3.006,5.097c0.079,19.776,0.083,39.553,0.004,59.335c-0.008,2.099,1.248,5.414-2.958,5.14
			c-4.026-0.261-2.506-3.53-2.54-5.562C1274.203,571.17,1274.289,561.431,1274.292,551.693z"/>
		<path fill="#010101" d="M654.26,560.916c-0.005-6.687,0.106-13.377-0.051-20.06c-0.078-3.317,3.066-5.354,4.02-3.476
			c4.357,8.569,7.046-0.683,10.45-0.691c2.4-0.006,4.697-2.453,7.354-0.048c0.807,0.73,2.251,0.665,1.165,2.318
			c-1.581,2.415-3.521,2.074-6.223,2.442c-7.995,1.094-10.576,8.08-10.984,15.285c-0.465,8.181-0.026,16.408-0.168,24.615
			c-0.036,2.057,1.359,5.399-2.888,5.181c-4.056-0.211-2.548-3.461-2.604-5.507C654.153,574.293,654.264,567.605,654.26,560.916z"/>
		<path fill="#010101" d="M689.223,561.708c0,6.371,0.109,12.74-0.055,19.105c-0.061,2.328,1.454,5.633-3.289,5.807
			c-4.328,0.159-4.012-2.415-4.007-5.235c0.034-13.041,0.009-26.081,0.026-39.12c0.004-2.648-0.693-5.469,3.845-5.34
			c4.7,0.135,3.392,3.289,3.437,5.683C689.308,548.97,689.223,555.342,689.223,561.708z"/>
		<path fill="#CF001F" d="M852.457,333.427c0,45.836-0.039,91.675,0.072,137.515c0.009,3.74-2.182,9.331,5.176,9.192
			c-12.664,3.042-25.328,3.031-37.993,0.006c7.313,0.003,14.671-0.488,21.929,0.145c7.538,0.66,9.164-2.416,9.119-9.395
			c-0.273-42.356-0.172-84.713-0.073-127.072C850.696,340.334,849.295,336.44,852.457,333.427z"/>
		<path fill="#010101" d="M1079.876,562.41c0.001,6.685-0.01,13.366,0.009,20.054c0.007,2.263-0.08,4.32-3.269,4.038
			c-2.729-0.241-2.325-2.275-2.329-3.974c-0.038-13.976-0.024-27.954-0.024-41.93c0-1.896,0.083-3.588,2.755-3.61
			c2.653-0.026,2.855,1.604,2.855,3.544C1079.876,547.825,1079.876,555.117,1079.876,562.41z"/>
		<path fill="#010101" d="M817.508,648.896c0.016-6.378-0.047-12.761,0.051-19.14c0.028-1.874-0.969-4.467,2.491-4.701
			c3.381-0.231,3.054,2.078,3.054,4.196c0.008,13.672,0.011,27.345-0.003,41.017c-0.004,2.1,0.347,4.465-3.021,4.276
			c-3.444-0.191-2.521-2.798-2.548-4.683C817.438,662.873,817.494,655.886,817.508,648.896z"/>
		<path d="M678.212,650.594c0.008,6.382,0.075,12.758-0.037,19.14c-0.033,1.872,0.937,4.548-2.449,4.78
			c-4.151,0.285-3.07-2.903-3.084-5.033c-0.084-13.363-0.056-26.729-0.029-40.093c0.006-2.041-0.505-4.47,2.942-4.346
			c3.508,0.125,2.587,2.702,2.608,4.597C678.253,636.619,678.202,643.608,678.212,650.594z"/>
		<path fill="#EA5E0E" d="M201.362,199.54c-5.146,3.035-15.446,0.469-12.52,13.132c-2.487-7.142-5.359-8.366-9.959-0.93
			c0.989-5.564,4.146-8.393,4.108-12.289c6.303-5.507,12.848-10.412,21.996-8.829c-1.232,5.961-1.232,5.961-7.834,7.438
			c-1.202-0.229,0.055,2.063,0.142,0.847c0.017-0.234,0.297-0.29,0.835-0.313C199.323,198.545,200.491,198.513,201.362,199.54z"/>
		<path fill="#CA0417" d="M549.835,470.978c7.777-2.544,11.204-9.594,7.934-16.316c7.133,2.794,7.059,2.762,4.238,9.024
			c-0.715,1.589-0.794,3.462-1.166,5.206c-2.251,2.158-3.574,5.522-7.37,5.676c-1.211-1.192-2.424-2.392-3.636-3.586V470.978z"/>
		<path fill="#D30218" d="M1135.018,459.984c3.185,3.028,6.371,6.059,10.021,9.526c-2.218,1.795-5.349-0.363-7.056,1.784
			C1128.418,469.771,1131.939,464.822,1135.018,459.984z"/>
		<path fill="#040404" d="M690.657,521.13c-1.202,1.979-2.145,4.701-4.875,4.71c-2.997,0.009-5.018-2.403-4.812-5.12
			c0.155-2.06,1.469-4.087,4.836-4.088C689.39,516.627,689.146,519.495,690.657,521.13z"/>
		<path fill="#060606" d="M1076.692,525.992c-2.683-0.091-4.094-1.738-4.226-4.438c-0.116-2.322-0.425-4.578,3.305-4.871
			c3.684-0.283,5.158,2.104,5.352,4.432C1081.289,523.052,1079.754,525.597,1076.692,525.992z"/>
		<path fill="#030303" d="M679.083,610.631c-0.147,0.596-1.37,2.742-3.878,3.186c-3.049,0.54-4.447-1.796-4.645-4.342
			c-0.183-2.359,0.081-4.747,3.773-4.722C677.391,604.771,678.764,606.073,679.083,610.631z"/>
		<path fill="#020202" d="M824.66,609.377c-1.294,2.056-2.449,4.703-5.197,4.475c-3.391-0.285-3.921-2.971-3.831-6.017
			c0.098-3.306,2.251-2.807,4.362-3.018C823.502,604.467,823.296,607.621,824.66,609.377z"/>
		<path fill="#E85D0E" d="M201.362,199.54c-3.345-0.376-6.954,0.885-12.485-2.633c8.24,0.782,13.939,0.528,16.109-6.283
			c1.252,0.005,2.505,0.012,3.758,0.018c2.524,1.351,2.939,3.017,0.371,4.627c-2.495,1.564-4.905,3.324-7.75,4.269L201.362,199.54z"
			/>
		<path fill="#0A0A0A" d="M186.815,109.952c-0.73-1.926-2.041-3.28-3.964-4.033c3.017-3.39,5.157-7.772,11.822-10.218
			C191.033,101.351,190.516,106.408,186.815,109.952z"/>
		<path fill="#EA5E0E" d="M201.364,199.535c1.454-3.799,8.1-3.292,7.379-8.896c1.223,0.02,2.444,0.038,3.668,0.06
			c-0.167,1.811,5.904,3.771-0.222,5.496C208.559,197.215,205.483,200.051,201.364,199.535z"/>
		<path fill="#CF0018" d="M857.728,337.06c-3.359-6.608-0.933-13.613-1.396-20.419C859.751,323.244,857.345,330.247,857.728,337.06z
			"/>
		<path fill="#C60511" d="M559.292,338.31c-4.467,5.028-9.919,1.024-14.82,2.113c3.837-3.057,8.903,0.346,12.632-3.003
			C558.109,337.038,558.864,337.268,559.292,338.31z"/>
		<path fill="#C30A1B" d="M829.129,263.471c-2.134,0.971-4.268,1.946-6.535,2.977c-1.723-3.268,2.011-4.038,2.327-6.16
			C827.008,260.442,828.063,261.959,829.129,263.471z"/>
		<path fill="#C40516" d="M1217.429,350.146c-0.289,1.478-0.591,3.253-2.608,2.671c-2.355-0.683-2.806-2.811-2.783-5.018
			C1214.146,347.863,1215.937,348.658,1217.429,350.146z"/>
		<path fill="#C50515" d="M379.381,369.873c-1.104,2.521-2.954,4.249-7.475,6.621c2.66-3.987,4.122-6.176,5.582-8.365
			C378.119,368.708,378.75,369.291,379.381,369.873z"/>
		<path fill="#EC5A0F" d="M221.896,256.571c-1.112-0.664-2.155-1.75-1.104-2.813c1.692-1.707,3.274-0.72,4.486,0.971
			C224.665,256.287,223.289,256.44,221.896,256.571z"/>
		<path fill="#C60417" d="M938.5,476.843c4.181-2.139,5.918,0.522,7.362,3.753C943.039,480.067,940.479,479.023,938.5,476.843z"/>
		<path fill="#D3041B" d="M1022.998,443.452c3.684-3.031,7.364-6.064,11.043-9.096c0.611,0.591,1.223,1.187,1.835,1.776
			c0.702,1.637,2.569,0.946,3.649,1.826c4.207,5.728-1.425,8.282-3.837,11.882c1.295,2.169,3.628-0.809,4.762,0.863
			c0.789,1.164-0.344,2.295-1.338,2.888c-1.776,1.055-4.157,3.002-5.732,1.166C1030.042,450.863,1023.271,450.084,1022.998,443.452z
			"/>
		<path fill="#C70219" d="M1073.862,350.509c0,29.084,0,58.167,0,87.253c-0.307-0.001-0.61-0.003-0.915-0.005
			c0-29.186,0-58.372,0-87.558C1073.252,350.303,1073.556,350.405,1073.862,350.509z"/>
		<path fill="#CA0216" d="M973.527,454.423c1.839,0.116,3.679,0.234,5.516,0.351c0.662,1.741,2.821,3.495-0.047,5.204
			c-3.66,1.39-7.32,1.387-10.982,0c-4.859,4.266-9.273,2.084-15.348-1.836c5.756,0,9.858,0.054,13.962-0.018
			C969.52,458.079,972.948,458.856,973.527,454.423z"/>
		<path fill="#C60417" d="M936.417,470.478c3.002-0.559,5.626-3.413,8.833-1.646c0.396,0.217,0.525,2.004,0.121,2.401
			C942.419,474.143,939.496,471.333,936.417,470.478z"/>
		<path fill="#D7031A" d="M1038.981,296.516c-0.676,2.171-2.195,1.151-3.596,1.163c-2.172,0.014-3.718-0.779-3.665-2.904
			c0.059-2.21,2.116-1.672,3.466-1.508C1037.069,293.497,1038.604,294.409,1038.981,296.516z"/>
		<path fill="#C80311" d="M1039.526,437.959c-1.887,0.062-2.534,3.482-4.799,1.879c-0.328-0.23,0.73-2.422,1.149-3.706
			c1.542-0.762,3.747-2.547,4.482-2.069C1041.853,435.032,1039.795,436.576,1039.526,437.959z"/>
		<path fill="#DB001C" d="M968.013,459.979c3.661,0,7.321,0,10.981,0C975.334,462.747,971.674,462.756,968.013,459.979z"/>
		<path fill="#BF0316" d="M1051.338,458.421c-0.852-3.987-0.368-5.329,1.104-6.167c0.209-0.116,1.179,0.561,1.15,0.643
			C1053.113,454.253,1052.532,455.574,1051.338,458.421z"/>
		<path fill="#CF0018" d="M629.331,465.161c-11.267-9.171-15.454-21.132-15.366-35.238c0.155-24.434-0.145-48.865,0.115-73.293
			c0.166-15.505-0.649-30.872-3.736-46.087c-5.243-25.813-19.092-44.483-44.441-53.633c-17.15-6.193-34.952-6.419-52.888-6.164
			c-20.783,0.292-39.426,7.536-57.398,16.955c-4.14,2.169-7.612,5.001-3.354,11.118c4.286,6.161,7.151,13.4,10.055,20.407
			c2.448,5.903,4.71,5.2,9.197,1.735c19.474-15.047,42.388-18.264,65.482-14.244c27.039,4.708,33.549,22.356,36.568,44.222
			c1.421,10.294,0.898,10.354-9.75,8.021c-1.484-0.322-3.015-0.439-4.522-0.65c-1.698,0.994-3.421,1.398-5.157,1.534
			c1.051-0.346,2.054-1.056,2.965-2.419c-16.988-0.869-33.927-1.211-50.581,3.357c-34.042,9.333-74.385,37.071-68.675,87.153
			c2.437,21.337,12.854,37.968,30.834,48.294c28.061,16.117,56.771,11.841,84.794-1.656c0.982-3.484-2.842-2.05-3.729-3.635
			c-0.626-0.491-1.369-0.769-2.016-1.209c0.818,0.359,1.533,0.88,2.271,1.373c1.018,0.677-0.299-0.156,0.713,0.524
			c4.203,1.344,6.173-1.084,7.408-4.516c1.027-2.848,3.688-4.808,4.085-9.211c0.421,4.647-5.217,7.116-1.366,10.996
			c3.888-2.906,9.005-3.81,11.528-9.084c1.363-2.848,5.045-3.878,7.179,1.048c8.079,18.673,24.309,23.762,42.667,24.663
			c3.263,0.159,9.109,2.124,9.543-1.909C632.402,477.62,635.599,470.266,629.331,465.161z M548.503,339.693
			c-0.756-0.052-1.512-0.101-2.265-0.113C546.982,339.524,547.741,339.591,548.503,339.693z M576.198,415.646
			c-0.025,2.751-0.375,5.417-2.192,7.656c-14.141,26.006-53.063,39.335-79.44,27.162c-6.55-3.022-11.333-7.962-14.711-14.299
			c-1.17-0.95-2.665-1.751-1.666-3.679c-5.421-25.356,4.668-44.06,26.208-56.306c22.144-12.589,45.698-14.611,69.632-4.29
			c2.092,2.147,2.135,4.901,2.162,7.611C576.312,391.55,576.307,403.598,576.198,415.646z"/>
		<path fill="#D00014" d="M606.691,430.629c-0.196,1.497-0.152,3.485-1.886,3.781c-2.482,0.419-1.763-1.854-1.744-3.088
			c0.476-27.691-1.253-55.413,0.931-83.067c0.36-4.552-3.365-9.309,1.243-14.574c2.483,5.082,1.014,9.894,1.456,14.417
			c3.095,3.21,2.537,7.298,2.552,11.176c0.078,18.765-0.014,37.533,0.066,56.299C609.331,420.785,608.053,425.695,606.691,430.629z"
			/>
		<path fill="#D4001A" d="M606.691,430.629c0-27.512,0-55.02,0-82.529c4.136-4.894,0.16-11.079,3.673-18.841
			c0,7.984,0,13.413,0,18.847c1.992,20.247,0.454,40.546,0.807,60.818c0.095,5.388,0.994,10.884-0.821,16.198
			C609.132,426.96,607.912,428.794,606.691,430.629z"/>
		<path fill="#D4011A" d="M581.014,377.441c0,12.409-0.02,24.813,0.009,37.222c0.009,4.093,0.086,8.152-5.512,8.627
			c-0.58-0.975-0.663-1.994-0.258-3.053c0.847-13.872-0.395-27.778,0.661-41.649C577.272,376.682,578.379,373.658,581.014,377.441z"
			/>
		<path fill="#C70611" d="M610.353,425.123c0.002-25.674,0.009-51.343,0.011-77.017c1.643,1.244,1.818,3.028,1.818,4.889
			c-0.002,26.979-0.001,53.958-0.001,82.778C609.604,431.263,610.697,428.079,610.353,425.123z"/>
		<path fill="#C70415" d="M575.515,421.44c-0.002,0.617-0.003,1.233-0.003,1.85c-0.501,0.006-1.004,0.011-1.506,0.017
			c0.006-17.141,0.015-34.275,0.023-51.413c2.441-1.31,5.154-2.974,7.584-0.772c2.083,1.888,1.612,4.394-0.599,6.319
			c-1.228-2.047-2.456-0.147-3.684,0.004c-2.037,10.755-0.346,21.616-0.958,32.408C576.152,413.718,577.303,417.692,575.515,421.44z
			"/>
		<path fill="#C60414" d="M513.254,280.793c-5.069,4.281-8.959,2.918-12.763,2.394C504.07,281.859,507.51,279.872,513.254,280.793z"
			/>
		<path fill="#C80715" d="M477.123,472.377c2.776,0.286,4.077,1.79,4.054,4.412c-0.001,0.287-0.916,0.885-1.282,0.802
			C477.13,476.956,476.169,475.252,477.123,472.377z"/>
		<path fill="#C50514" d="M478.188,432.487c1.063,0.997,2.027,2.035,1.666,3.679c-2.242,1.133-3.415,2.927-3.383,5.467v0.002
			C471.167,437.484,475.921,435.218,478.188,432.487z"/>
		<path fill="#C80715" d="M463.783,467.793c4.185,0.442,6.44,1.304,8.045,4.161C468.068,473.563,466.525,471.069,463.783,467.793z"
			/>
		<path fill="#C50514" d="M476.471,441.635c1.807,1.267,4.506,1.906,3.916,4.923c-0.102,0.508-1.639,1.282-2.189,1.074
			C475.103,446.461,477.051,443.656,476.471,441.635L476.471,441.635z"/>
		<path fill="#CA0417" d="M549.835,470.981c-2.725-0.063-5.598,0.188-7.049-4.096c3.52-0.01,5.686,1.206,7.049,4.092V470.981z"/>
		<path fill="#DB001F" d="M446.208,392.51c0.63,3.62-1.184,4.741-2.805,8.62C442.784,396.296,443.851,394.692,446.208,392.51z"/>
		<path fill="#D5011A" d="M322.674,284.076c-5.219,0.043-9.96-1.133-13.983-5.348c6.868-5.822,11.751,2.049,17.523,1.989
			c-1.225,1.154-2.454,2.309-3.681,3.463C322.532,284.183,322.674,284.076,322.674,284.076z"/>
		<path fill="#D9031C" d="M270.703,289.195c-1.532-0.054-2.773-0.533-2.708-1.975c0.169-3.705,3.426-4.543,6.029-5.639
			c1.176-0.494,2.252,1.199,2.027,2.308C275.458,286.821,273.316,288.438,270.703,289.195z"/>
		<path fill="#C40413" d="M340.875,380.083c2.866-0.91,2.361,0.949,2.529,2.318c0.153,1.247,0.18,2.911-1.151,2.818
			c-1.188-0.087-2.664-1.315-3.327-2.445C337.505,380.354,340.887,381.316,340.875,380.083z"/>
		<path fill="#DF0016" d="M289.235,269.105c-0.999,0.779-1.553,1.532-2.185,1.605c-0.567,0.064-1.219-0.618-1.833-0.975
			c0.544-0.573,1-1.411,1.661-1.628C287.367,267.948,288.121,268.598,289.235,269.105z"/>
		<path fill="#CA0214" d="M771.92,256.1c7.217-2.796,14.408-5.408,21.639,0C786.346,256.1,779.132,256.1,771.92,256.1z"/>
		<path fill="#C60311" d="M813.937,293.082c5.879,3.312,5.13,8.215,3.996,13.784c-5.857-2.295,0.285-7.948-4.017-10.12
			C812.798,295.518,812.875,294.296,813.937,293.082z"/>
		<path fill="#DA0216" d="M813.937,293.082c-0.008,1.222-0.015,2.443-0.021,3.665c-1.967,0.782-4.512,1.853-4.7-1.386
			C809.025,292.189,812.128,293.445,813.937,293.082z"/>
		<path fill="#C90413" d="M1209.637,456.653c-6.354,4.689-13.032-0.669-19.708,0
			C1196.498,456.653,1203.065,456.653,1209.637,456.653z"/>
		<path fill="#C9021B" d="M1221.258,278.93c-6.93-0.729-13.844-1.173-20.803-0.739
			C1207.381,276.602,1214.312,275.607,1221.258,278.93z"/>
		<path fill="#C70313" d="M1171.307,360.188c-4.666,0.188-5.008-2.707-6.195-5.942
			C1168.797,354.697,1170.432,356.408,1171.307,360.188z"/>
		<path fill="#DD0013" d="M1232.242,357.103c-2.015,2.255-4.237,4.013-7.998,3.198c1.679-4.28,5.342-2.548,8.052-3.149
			L1232.242,357.103z"/>
		<path fill="#C70313" d="M1160.908,352.466c0.509,1.584,0.32,2.467-0.817,2.124c-0.656-0.195-1.286-1.125-1.528-1.86
			c-0.193-0.569,0.225-1.345,0.375-2.028C1159.736,351.417,1160.534,352.131,1160.908,352.466z"/>
		<path fill="#C9021B" d="M1231.938,279.278c-0.322,1.192-0.88,1.907-1.761,1.257c-0.567-0.424-1.01-1.394-0.978-2.095
			c0.017-0.387,1.123-0.726,1.742-1.085C1231.309,278.063,1231.675,278.771,1231.938,279.278z"/>
		<path fill="#020202" d="M658.024,670.329c0.046-20.463,0.042-40.928,0.011-61.394c-0.004-1.69,0.464-3.768-2.286-4.035
			c-3.284-0.32-3.214,1.873-3.212,4.088c0.009,7.614,0.003,15.224,0.003,23.979c-18.369-12.349-28.382-12.382-39.156-0.918
			c-8.684,9.239-9.408,24.377-1.626,33.971c10.537,12.991,20.364,13.652,39.783,2.6c2.312,1.299-0.835,6.804,4.408,5.924
			C658.694,674.082,658.021,671.97,658.024,670.329z M652.539,650.134c-0.002,12.509-7.722,20.642-19.711,20.76
			c-11.955,0.118-20.598-8.417-20.627-20.42c-0.037-14.014,9.454-21.117,20.45-21.465
			C643.961,628.651,654.456,639.377,652.539,650.134z"/>
		<path fill="#020202" d="M1153.672,650.624c5.466,0.367,10.978,0.076,16.473,0.086c6.404,0.012,12.813-0.075,19.222,0.045
			c2.932,0.058,4.535-0.58,4.193-4.025c-1.187-12.065-13.762-23.51-26.048-23.527c-10.715-0.014-22.623,9.407-25.146,19.9
			c-2.708,11.275,3.266,25.494,12.927,30.752c9.694,5.274,23.801,2.745,31.487-5.867c1.828-2.046,5.783-4.604,2.411-7.433
			c-2.88-2.416-4.421,1.939-6.188,3.617c-11.882,11.264-28.111,8.358-34.074-6.016
			C1146.748,652.891,1146.937,650.174,1153.672,650.624z M1151.719,636.83c8.491-11.246,27.155-9.743,33.27,2.512
			c2.185,4.385,1.805,6.071-3.329,5.91c-4.868-0.149-9.741-0.032-14.609-0.036c-3.653-0.002-7.313,0.146-10.956-0.056
			c-2.285-0.124-5.604,1.357-6.625-0.869C1148.42,641.987,1149.972,639.141,1151.719,636.83z"/>
		<path fill="#010101" d="M589.526,650.869c6.82,0.729,6.906-3.081,6.046-7.589c-2.148-11.287-16.95-24.276-33.524-18.198
			c-9.583,3.512-17.416,14.218-17.712,25.075c-0.28,10.196,8.073,21.299,18.742,24.919c10.265,3.479,22.064,0.077,28.368-8.281
			c1.375-1.818,3.935-3.848,1.104-6.181c-2.061-1.694-3.651-0.427-5.094,1.687c-5.677,8.314-14.311,10.416-23.117,7.988
			c-8.952-2.468-13.282-9.785-13.203-19.567c6.38,0,12.781,0,19.181,0.002C576.726,650.724,583.19,650.19,589.526,650.869z
			 M570.785,628.883c9.346,0.146,16.289,6.147,18.562,16.041c-12.386-0.004-24.773-0.004-37.243-0.004
			C555.296,633.967,561.477,628.733,570.785,628.883z"/>
		<path fill="#020202" d="M356.289,606.124c-9.986,21.193-19.536,41.454-29.075,61.721c-0.894,1.902-1.712,3.839-2.783,6.248
			c8.98,2.294,9.152-5.014,10.63-9.286c3.148-9.103,8.075-12.198,18.271-12.811c13.845-0.835,22,3.202,25.681,16.38
			c1.241,4.446,3.221,7.837,9.005,5.624C377.572,651.656,367.132,629.322,356.289,606.124z M343.806,646.76
			c4.084-8.813,7.916-17.081,12.412-26.789c4.53,9.682,8.378,17.906,12.536,26.789C360.116,646.76,352.563,646.76,343.806,646.76z"
			/>
		<path fill="#020202" d="M614.173,580.489c-9.431-20.443-18.941-40.848-28.9-62.274c-10.999,23.111-21.508,45.189-32.071,67.388
			c4.293,1.824,6.577,0.908,8.179-3.181c1.85-4.734,4.72-9.063,6.66-13.767c1.221-2.957,2.799-4.259,6.021-4.19
			c14.375,0.317,31.262-4.444,34.505,17.631c0.043,0.29,0.239,0.558,0.366,0.835c1.084,2.332,2.65,4.708,5.428,3.435
			C617.946,584.724,615.03,582.346,614.173,580.489z M578.684,559.078c-4.442,0.135-6.588-1.033-3.993-5.606
			c3.447-6.073,4.862-16.881,10.114-17.354c5.707-0.511,6.386,10.524,10.187,15.983c1.14,1.637,1.667,3.703,3.057,6.93
			C590.766,559.031,584.721,558.891,578.684,559.078z"/>
		<path fill="#030303" d="M1261.424,582.558c0.068-6.705,0.032-13.411,0.027-20.117c-0.002-7.314-0.006-14.632,0.002-21.947
			c0.003-1.929-0.102-3.657-2.809-3.479c-1.799,0.122-2.81,0.737-2.706,2.714c0.297,5.68-1.367,5.63-5.265,2.161
			c-11.468-10.204-25.981-7.488-35.604,3.592c-7.866,9.058-7.379,25.362,1.385,34.528c9.446,9.878,20.786,10.999,32.613,3.735
			c1.648-1.013,5.462-7.714,6.866,0.567c0.356,2.118,1.621,2.203,3.195,2.184C1262.075,586.46,1261.409,584.21,1261.424,582.558z
			 M1235.216,582.853c-11.916-0.086-19.833-8.502-19.776-21.018c0.054-12.043,8.856-21.282,20.107-21.104
			c11.815,0.186,20.516,9.538,20.4,21.938C1255.832,574.945,1247.618,582.94,1235.216,582.853z"/>
		<path fill="#020202" d="M771.654,632.187c-0.042-2.329,1.95-5.981-1.822-6.957c-5.772-1.497-1.993,5.114-5.179,6.619
			c-1.14-0.706-2.515-1.331-3.626-2.27c-12.49-10.608-26.745-5.883-34.999,3.591c-8.687,9.971-7.913,25.48,1.75,35.241
			c9.729,9.827,20.182,10.609,33.333,2.774c1.34-0.798,3.981-6.353,5.051,0.261c0.358,2.211,0.869,3.319,3.246,3.098
			c3.563-0.334,2.284-3.088,2.298-4.877C771.817,657.172,771.877,644.678,771.654,632.187z M746.868,670.889
			c-12.542,0.146-20.83-8.038-20.956-20.696c-0.121-11.923,9.137-21.506,20.689-21.419c11.32,0.089,19.734,9.124,19.82,21.285
			C766.512,662.592,758.856,670.748,746.868,670.889z"/>
		<path fill="#020202" d="M812.089,539.929c0-1.661-0.401-2.967-2.488-2.907c-1.626,0.048-2.842,0.274-3.043,2.357
			c-0.154,1.599,0.983,3.653-1.147,4.801c-16.553-11.507-27.208-11.475-38.177,0.042c-8.145,8.546-9.025,24.078-1.887,33.292
			c10.345,13.365,20.741,14.19,40.382,3.205c2.232,1.283-1.099,6.006,3.63,5.809c1.854-0.078,2.732-0.825,2.732-2.68
			C812.085,569.212,812.093,554.569,812.089,539.929z M786.465,582.857c-11.694-0.018-20.159-8.735-20.208-20.813
			c-0.049-11.744,9.816-21.68,21.1-21.248c11.38,0.436,19.433,9.531,19.35,21.857C806.625,575.162,798.896,582.878,786.465,582.857z
			"/>
		<path fill="#020202" d="M1028.406,544.648c-0.065-2.51,2.485-6.597-2.219-7.524c-5.563-1.099-1.225,5.698-4.602,6.6
			c-17.26-10.906-28.021-10.594-38.425,1.034c-7.934,8.861-8.353,24.116-0.905,33.233c10.599,12.98,20.972,13.7,39.805,2.681
			c2.202,1.352-0.71,7.133,4.476,5.719c3.883-1.063,1.858-4.644,1.904-6.979C1028.667,567.827,1028.699,556.229,1028.406,544.648z
			 M1002.975,582.854c-12.219,0.007-20.434-8.659-20.295-21.404c0.128-11.377,9.263-20.594,20.518-20.705
			c11.704-0.117,20.076,9.066,20.003,21.941C1023.132,575.146,1015.412,582.848,1002.975,582.854z"/>
		<path fill="#030303" d="M348.592,535.282c-13.68-1.04-26.133,12.079-26.189,26.598c-0.057,14.761,11.395,26.387,26.074,26.479
			c14.29,0.088,25.327-11.154,25.417-25.888C375.275,549.254,365.072,536.534,348.592,535.282z M368.254,562.424
			c-0.042,12.587-7.939,20.53-20.303,20.424c-11.392-0.101-19.943-8.72-20.034-20.194c-0.088-10.871,9.734-22.229,19.872-21.773
			C361.221,541.483,370.152,551.497,368.254,562.424z"/>
		<path fill="#030303" d="M859.5,623.535c-16.479-0.056-26.863,14.145-25.51,26.678c0.052,14.764,10.934,26.125,25.079,26.19
			c14.732,0.064,26.395-11.432,26.39-26.146C885.452,633.506,873.465,623.586,859.5,623.535z M859.56,670.891
			c-12.132-0.01-19.9-8.106-19.933-20.771c-1.874-12.306,9.312-20.801,19.897-21.252c10.5-0.448,20.289,10.113,20.435,21.263
			C880.111,661.99,871.36,670.897,859.56,670.891z"/>
		<path fill="#030303" d="M1116.521,535.508c-16.18-0.396-26.966,13.797-25.727,26.394c-0.019,14.82,10.782,26.342,24.806,26.463
			c14.829,0.135,26.648-11.245,26.608-25.959C1142.163,545.046,1130.42,535.847,1116.521,535.508z M1116.822,582.852
			c-12.182,0.121-20.393-8.058-20.427-20.347c-0.747-12.861,8.976-21.277,20.424-21.641c9.978-0.32,19.738,10.397,19.909,20.824
			C1136.93,573.803,1128.526,582.732,1116.822,582.852z"/>
		<path fill="#C80611" d="M575.515,421.44c0-11.821-0.059-23.644,0.04-35.465c0.027-2.909-0.996-6.148,1.776-8.53
			c0.004,11.828,0.07,23.656-0.03,35.481C577.277,415.83,578.322,419.074,575.515,421.44z"/>
		<path fill="#CF0018" d="M1093.941,461.826c-5.958-3.844-8.508-10.744-10.376-17.539c-3.792-13.808-1.294-27.904-1.8-41.858
			c-1.126-30.978,2.86-62.193-3.801-92.897c-5.401-24.908-18.931-43.624-43.691-52.337c-24.311-8.553-49.45-8.823-74.326-3.737
			c-13.712,2.804-27.235,7.66-38.878,16.133c-1.761,1.281-5.203,1.916-2.774,6.1c4.705,8.116,8.737,16.636,12.852,25.082
			c1.567,3.219,3.184,4.107,6.153,1.619c16.562-13.866,36.188-16.903,57.011-16.754c33.693,0.242,46.702,23.794,47.121,50.162
			c0.079,4.896-1.604,5.51-5.984,4.332c-20.369-5.471-40.859-4.57-60.998,0.757c-36.585,9.677-74.195,39.115-68.879,85.99
			c2.542,22.395,13.25,39.045,32.93,49.965c3.1-0.016,5.418,1.501,7.366,3.753c11.638,7.122,24.673,5.814,37.112,4.777
			c19.967-1.668,39.223-6.028,53.663-22.209c1.724-1.928,7.048-10.087,11.474-0.919c9.718,20.122,28.009,22.879,47.392,23.388
			c2.076,0.057,4.664,0.403,4.483-2.881C1099.585,475.369,1102.528,467.368,1093.941,461.826z M1034.043,434.358
			c-1.973,5.104-5.752,8.017-11.045,9.094c-13.319,8.959-28.12,12.147-43.956,11.323c-1.941,1.465-3.765,1.117-5.515-0.352
			c-3.94-1.482-8.041-2.646-11.799-4.501c-15.486-7.647-21.709-27.14-13.974-45.945c9.843-23.932,29.806-34.128,54.06-37.425
			c10.553-1.435,21.108-0.444,31.637,1.624c5.66,1.111,8.357,2.821,8.048,9.235c-0.561,11.577-0.619,23.228,0.004,34.798
			C1041.965,420.843,1040.679,428.366,1034.043,434.358z"/>
	</g>
</g>
</svg>
